<svg xmlns="http://www.w3.org/2000/svg" viewBox="0 0 360 360"><path d="M240,107.663V253.244c20.743-18.424,33.64-44.225,33.64-72.79S260.743,126.087,240,107.663Z" fill="#F0F0F0"/><path d="M240,43.717v30.4c37.524,22.856,62.262,61.946,62.262,106.337S277.524,263.935,240,286.791v30.4c53.981-25.57,90.884-77.2,90.884-136.736S293.981,69.287,240,43.717Z" fill="#F0F0F0"/><path d="M113.258,99.263a32.739,32.739,0,0,1-18.11,5.466H62.488a32.731,32.731,0,0,0-32.731,32.732v85.078a32.731,32.731,0,0,0,32.731,32.732h32.66a32.739,32.739,0,0,1,18.11,5.466l98.417,65.369V33.894Z" fill="#F0F0F0"/><rect y="0.099" width="360" height="360" fill="none"/></svg>
