<svg xmlns="http://www.w3.org/2000/svg" viewBox="0 0 360 360"><path d="M240,107.663V253.244c20.743-18.424,33.64-44.225,33.64-72.79S260.743,126.087,240,107.663Z" fill="#787878"/><path d="M302.262,180.454a119.953,119.953,0,0,1-25.93,74.165l19.695,19.694c21.856-25.971,34.857-58.522,34.857-93.859,0-59.536-36.9-111.167-90.884-136.737v30.4C277.524,96.973,302.262,136.063,302.262,180.454Z" fill="#787878"/><path d="M211.675,233.226V33.894L113.258,99.263a32.739,32.739,0,0,1-18.11,5.466H83.179Z" fill="#787878"/><path d="M44.99,109.8a32.7,32.7,0,0,0-15.233,27.657v85.078a32.731,32.731,0,0,0,32.731,32.732h32.66a32.739,32.739,0,0,1,18.11,5.466l98.417,65.369V276.489Z" fill="#787878"/><rect x="164.605" y="-10.978" width="30.592" height="381.596" transform="translate(-74.46 179.877) rotate(-45)" fill="#787878"/><rect width="360" height="360" fill="none"/></svg>
