<svg xmlns="http://www.w3.org/2000/svg" width="32" height="32"><g transform="translate(0 -1020.362)" stroke="#0000fd" fill="none"><rect width="28" height="28" x="2" y="1022.362" ry="4.308" stroke-width=".05"/><path d="M0 1052.362l32-32M32 1052.362l-32-32" stroke-width=".05"/><rect width="15.97" height="28" x="8.03" y="1022.362" ry="4.308" stroke-width=".05"/><rect width="7.979" height="28" x="12" y="1022.362" ry="4.308" stroke-width=".05"/><rect width="21.964" height="27.995" x="5.036" y="1022.362" ry="4.307" stroke-width=".05"/><rect width="28" height="28" x="1022.347" y="-29.985" ry="4.308" transform="rotate(90)" stroke-width=".05"/><rect width="15.97" height="28" x="1028.362" y="-30" ry="4.308" transform="rotate(90)" stroke-width=".05"/><rect width="7.979" height="28" x="1032.358" y="-29.975" ry="4.308" transform="rotate(90)" stroke-width=".05"/><rect width="21.964" height="27.995" x="1025.363" y="-30.001" ry="4.307" transform="rotate(90)" stroke-width=".05"/><circle cx="15.954" cy="1036.305" r="3.997" opacity=".98" stroke-width=".05" stroke-linecap="round" stroke-linejoin="round" paint-order="stroke markers fill"/><circle cx="16.004" cy="1036.312" r="7.994" opacity=".98" stroke-width=".05" stroke-linecap="round" stroke-linejoin="round" paint-order="stroke markers fill"/><circle cx="16.004" cy="1036.374" r="10.992" opacity=".98" stroke-width=".05" stroke-linecap="round" stroke-linejoin="round" paint-order="stroke markers fill"/><circle cx="15.953" cy="1036.54" r="13.968" opacity=".98" stroke-width=".064" stroke-linecap="round" stroke-linejoin="round" paint-order="stroke markers fill"/></g></svg>