<svg xmlns="http://www.w3.org/2000/svg" width="1200" height="1200"><g color="#000"><path style="isolation:auto;mix-blend-mode:normal;solid-color:#000;solid-opacity:1" overflow="visible" fill="{{ COLOR_BACKGROUND_DARK }}" d="M25 875h200v200H25z"/><path style="isolation:auto;mix-blend-mode:normal;solid-color:#000;solid-opacity:1" overflow="visible" fill="{{ COLOR_BACKGROUND_NORMAL }}" d="M75 975h200v200H75z"/><path style="isolation:auto;mix-blend-mode:normal;solid-color:#000;solid-opacity:1" overflow="visible" fill="{{ COLOR_BACKGROUND_LIGHT }}" d="M125 925h200v200H125z"/><path style="isolation:auto;mix-blend-mode:normal;solid-color:#000;solid-opacity:1" overflow="visible" fill="{{ COLOR_SELECTION_LIGHT }}" d="M41 891h68v68H41z"/><path style="isolation:auto;mix-blend-mode:normal;solid-color:#000;solid-opacity:1" overflow="visible" fill="{{ COLOR_FOREGROUND_LIGHT }}" d="M93 948h90v90H93z"/><path style="isolation:auto;mix-blend-mode:normal;solid-color:#000;solid-opacity:1" overflow="visible" fill="{{ COLOR_SELECTION_LIGHT }}" d="M93 1073h68v68H93z"/><path style="isolation:auto;mix-blend-mode:normal;solid-color:#000;solid-opacity:1" overflow="visible" fill="{{ COLOR_BACKGROUND_DARK }}" d="M25 450h200v200H25z"/><path style="isolation:auto;mix-blend-mode:normal;solid-color:#000;solid-opacity:1" overflow="visible" fill="{{ COLOR_BACKGROUND_NORMAL }}" d="M75 550h200v200H75z"/><path style="isolation:auto;mix-blend-mode:normal;solid-color:#000;solid-opacity:1" overflow="visible" fill="{{ COLOR_BACKGROUND_LIGHT }}" d="M125 500h200v200H125z"/><path style="isolation:auto;mix-blend-mode:normal;solid-color:#000;solid-opacity:1" overflow="visible" fill="{{ COLOR_SELECTION_LIGHT }}" d="M93 523h90v90H93z"/><path style="isolation:auto;mix-blend-mode:normal;solid-color:#000;solid-opacity:1" overflow="visible" fill="{{ COLOR_BACKGROUND_DARK }}" d="M450 450h200v200H450z"/><path style="isolation:auto;mix-blend-mode:normal;solid-color:#000;solid-opacity:1" overflow="visible" fill="{{ COLOR_BACKGROUND_NORMAL }}" d="M500 550h200v200H500z"/><path style="isolation:auto;mix-blend-mode:normal;solid-color:#000;solid-opacity:1" overflow="visible" fill="{{ COLOR_BACKGROUND_LIGHT }}" d="M550 500h200v200H550z"/><path style="isolation:auto;mix-blend-mode:normal;solid-color:#000;solid-opacity:1" overflow="visible" fill="{{ COLOR_SELECTION_NORMAL }}" d="M518 523h90v90h-90z"/><path style="isolation:auto;mix-blend-mode:normal;solid-color:#000;solid-opacity:1" overflow="visible" fill="{{ COLOR_BACKGROUND_DARK }}" d="M875 450h200v200H875z"/><path style="isolation:auto;mix-blend-mode:normal;solid-color:#000;solid-opacity:1" overflow="visible" fill="{{ COLOR_BACKGROUND_NORMAL }}" d="M925 550h200v200H925z"/><path style="isolation:auto;mix-blend-mode:normal;solid-color:#000;solid-opacity:1" overflow="visible" fill="{{ COLOR_BACKGROUND_LIGHT }}" d="M975 500h200v200H975z"/><path style="isolation:auto;mix-blend-mode:normal;solid-color:#000;solid-opacity:1" overflow="visible" fill="{{ COLOR_SELECTION_DARK }}" d="M943 523h90v90h-90z"/><path style="isolation:auto;mix-blend-mode:normal;solid-color:#000;solid-opacity:1" overflow="visible" fill="{{ COLOR_BACKGROUND_DARK }}" d="M25 25h200v200H25z"/><path style="isolation:auto;mix-blend-mode:normal;solid-color:#000;solid-opacity:1" overflow="visible" fill="{{ COLOR_BACKGROUND_NORMAL }}" d="M75 125h200v200H75z"/><path style="isolation:auto;mix-blend-mode:normal;solid-color:#000;solid-opacity:1" overflow="visible" fill="{{ COLOR_BACKGROUND_LIGHT }}" d="M125 75h200v200H125z"/><path style="isolation:auto;mix-blend-mode:normal;solid-color:#000;solid-opacity:1" overflow="visible" fill="{{ COLOR_FOREGROUND_LIGHT }}" d="M93 98h90v90H93z"/><path style="isolation:auto;mix-blend-mode:normal;solid-color:#000;solid-opacity:1" overflow="visible" fill="{{ COLOR_BACKGROUND_DARK }}" d="M450 25h200v200H450z"/><path style="isolation:auto;mix-blend-mode:normal;solid-color:#000;solid-opacity:1" overflow="visible" fill="{{ COLOR_BACKGROUND_NORMAL }}" d="M500 125h200v200H500z"/><path style="isolation:auto;mix-blend-mode:normal;solid-color:#000;solid-opacity:1" overflow="visible" fill="{{ COLOR_BACKGROUND_LIGHT }}" d="M550 75h200v200H550z"/><path style="isolation:auto;mix-blend-mode:normal;solid-color:#000;solid-opacity:1" overflow="visible" fill="{{ COLOR_FOREGROUND_NORMAL }}" d="M518 98h90v90h-90z"/><path style="isolation:auto;mix-blend-mode:normal;solid-color:#000;solid-opacity:1" overflow="visible" fill="{{ COLOR_BACKGROUND_DARK }}" d="M875 25h200v200H875z"/><path style="isolation:auto;mix-blend-mode:normal;solid-color:#000;solid-opacity:1" overflow="visible" fill="{{ COLOR_BACKGROUND_NORMAL }}" d="M925 125h200v200H925z"/><path style="isolation:auto;mix-blend-mode:normal;solid-color:#000;solid-opacity:1" overflow="visible" fill="{{ COLOR_BACKGROUND_LIGHT }}" d="M975 75h200v200H975z"/><path style="isolation:auto;mix-blend-mode:normal;solid-color:#000;solid-opacity:1" overflow="visible" fill="{{ COLOR_FOREGROUND_DARK }}" d="M943 98h90v90h-90z"/><path style="isolation:auto;mix-blend-mode:normal;solid-color:#000;solid-opacity:1" overflow="visible" fill="{{ COLOR_BACKGROUND_DARK }}" d="M450 875h200v200H450z"/><path style="isolation:auto;mix-blend-mode:normal;solid-color:#000;solid-opacity:1" overflow="visible" fill="{{ COLOR_BACKGROUND_NORMAL }}" d="M500 975h200v200H500z"/><path style="isolation:auto;mix-blend-mode:normal;solid-color:#000;solid-opacity:1" overflow="visible" fill="{{ COLOR_BACKGROUND_LIGHT }}" d="M550 925h200v200H550z"/><path style="isolation:auto;mix-blend-mode:normal;solid-color:#000;solid-opacity:1" overflow="visible" fill="{{ COLOR_SELECTION_NORMAL }}" d="M466 891h68v68h-68z"/><path style="isolation:auto;mix-blend-mode:normal;solid-color:#000;solid-opacity:1" overflow="visible" fill="{{ COLOR_FOREGROUND_NORMAL }}" d="M518 948h90v90h-90z"/><path style="isolation:auto;mix-blend-mode:normal;solid-color:#000;solid-opacity:1" overflow="visible" fill="{{ COLOR_SELECTION_NORMAL }}" d="M518 1073h68v68h-68z"/><path style="isolation:auto;mix-blend-mode:normal;solid-color:#000;solid-opacity:1" overflow="visible" fill="{{ COLOR_BACKGROUND_DARK }}" d="M875 875h200v200H875z"/><path style="isolation:auto;mix-blend-mode:normal;solid-color:#000;solid-opacity:1" overflow="visible" fill="{{ COLOR_BACKGROUND_NORMAL }}" d="M925 975h200v200H925z"/><path style="isolation:auto;mix-blend-mode:normal;solid-color:#000;solid-opacity:1" overflow="visible" fill="{{ COLOR_BACKGROUND_LIGHT }}" d="M975 925h200v200H975z"/><path style="isolation:auto;mix-blend-mode:normal;solid-color:#000;solid-opacity:1" overflow="visible" fill="{{ COLOR_SELECTION_DARK }}" d="M891 891h68v68h-68z"/><path style="isolation:auto;mix-blend-mode:normal;solid-color:#000;solid-opacity:1" overflow="visible" fill="{{ COLOR_FOREGROUND_DARK }}" d="M943 948h90v90h-90z"/><path style="isolation:auto;mix-blend-mode:normal;solid-color:#000;solid-opacity:1" overflow="visible" fill="{{ COLOR_SELECTION_DARK }}" d="M943 1073h68v68h-68z"/></g></svg>