<svg xmlns="http://www.w3.org/2000/svg" viewBox="0 0 687 72" height="50">
<defs><style>.outer{fill:#ea2a58;}.inner{fill:#fff0cd;}</style></defs>
<path class="inner" d="M677.11,13.49c0,1.19-.64,3.63-1.94,7.32a35.87,35.87,0,0,1-2.52,6.11,13.07,13.07,0,0,1-4.28,3.52q-2.34,1.15-4.65,2.23,5.19,3.09,5.19,8.11a15.16,15.16,0,0,1-.54,4.32l-4.2,14.27q-1.59,5.38-8.07,5.39H606.27a1.78,1.78,0,0,1-.65-1.22l15.1-54.15a2.33,2.33,0,0,1,2.52-1.72h47a7.89,7.89,0,0,1,4.68,1.43A5.21,5.21,0,0,1,677.11,13.49ZM654.87,26.67a7.68,7.68,0,0,0,3.81-6.55,4.68,4.68,0,0,0-2.3-4.1,7.45,7.45,0,0,0-4.18-1.23,11.64,11.64,0,0,0-6.84,2.38q-3.6,2.67-3.6,6.34a4.78,4.78,0,0,0,1.87,4.06A7.46,7.46,0,0,0,648.24,29,11.31,11.31,0,0,0,654.87,26.67Zm-7.06,25.06c2.54-1.78,3.82-4,3.82-6.55A4.67,4.67,0,0,0,649.39,41a7.39,7.39,0,0,0-4.24-1.22A11.54,11.54,0,0,0,638.67,42q-4,2.67-4,6.34a5.16,5.16,0,0,0,2.24,4.46,7.18,7.18,0,0,0,4.32,1.3A11.36,11.36,0,0,0,647.81,51.73Z"/>
<path class="inner" d="M603.75,8.31q-1.43,6.58-2.4,9.81-7.64,27.21-12.89,45.5a1.89,1.89,0,0,1-2.09,1.43h-54.2c-1,0-1.52-.36-1.52-1.08q0-.15,7.15-25.49,7.41-26.28,7.78-27.72a7.63,7.63,0,0,1,1.08-2.6,4.83,4.83,0,0,1,3-.64h14.25c1.68,0,2.57.51,2.67,1.51l-3.17,12c.19.53.43.79.72.79h14.33q1,0,2.52-5a75.66,75.66,0,0,1,2.66-8.28c.1-.24.49-.47,1.19-.68a5.88,5.88,0,0,1,1.69-.33h14.9A3.17,3.17,0,0,1,603.75,8.31Z"/>
<path class="inner" d="M527.64,7.81a3.68,3.68,0,0,1,1.3.5q-2.75,13.47-4.68,13.47H508.92a9,9,0,0,0-.64,2.81c0,1.29.88,2.76,2.66,4.39q2.74,1.36,5.48,2.74,4.47,2.45,4.47,5.33l-7.22,26.58a1.88,1.88,0,0,1-2.09,1.42H457.23a2.13,2.13,0,0,1-1.37-.65A44.33,44.33,0,0,1,457.59,57c.86-3,1.73-6,2.59-9,.34-1.49.65-3,.94-4.41.38-1.74.91-2.83,1.58-3.26a4.94,4.94,0,0,1,2.74-.65H478.9a5.81,5.81,0,0,0,.72-2.73q0-2.37-4.1-4.67l-5.91-3.16a10.16,10.16,0,0,1-1.73-2,5.55,5.55,0,0,1-1-2.58q0-.43,1.72-6.9a90.5,90.5,0,0,1,2.88-9.12c.1-.24.54-.47,1.34-.68a7.47,7.47,0,0,1,1.9-.33h51.41A7.12,7.12,0,0,1,527.64,7.81Z"/>
<path class="inner" d="M454.06,8.24Q453,12.64,452,17.1c-.91,3.17-2,4.75-3.16,4.75H431.74q-1.72,0-3.17,4.46a18.37,18.37,0,0,0-1.22,5,1.92,1.92,0,0,0,.79,1.3h9.36c.91,0,1.37.43,1.37,1.29a8.42,8.42,0,0,1-.94,3.46c-.72,1.63-1.56,2.45-2.52,2.45H426.7q-1.72,0-3.17,4.39a18.2,18.2,0,0,0-1.22,5,2.15,2.15,0,0,0,.79,1.3h17.5a3.33,3.33,0,0,1,1.36.65,81.26,81.26,0,0,1-2.15,9.12c-1,3-1.73,4.55-2.31,4.55H381.84a2,2,0,0,1-.64-1.29q0-1.44,15.1-54.15A2.49,2.49,0,0,1,399,7.59H452.4A3.33,3.33,0,0,1,454.06,8.24Z"/>
<path class="inner" d="M370.54,41.22q0,1.23-3.17,12.13Q364,64.84,362.91,64.83H307.24c-.34-.15-.5-.54-.5-1.15l15-53.86a2.64,2.64,0,0,1,2.74-2.23h37c1.05,0,1.6.44,1.65,1.3L354.5,39.78h14.67C370.09,39.78,370.54,40.26,370.54,41.22Z"/>
<path class="inner" d="M304.59,13.49q0,1.78-1.94,7.32a35.87,35.87,0,0,1-2.52,6.11,13.1,13.1,0,0,1-4.29,3.52q-2.34,1.15-4.64,2.23,5.18,3.09,5.18,8.11a15.16,15.16,0,0,1-.54,4.32l-4.2,14.27q-1.57,5.38-8.06,5.39H233.74a1.83,1.83,0,0,1-.65-1.22L248.2,9.39a2.32,2.32,0,0,1,2.52-1.72h47a7.93,7.93,0,0,1,4.68,1.43A5.23,5.23,0,0,1,304.59,13.49ZM282.34,26.67a7.67,7.67,0,0,0,3.82-6.55,4.67,4.67,0,0,0-2.31-4.1,7.44,7.44,0,0,0-4.17-1.23,11.59,11.59,0,0,0-6.84,2.38q-3.6,2.67-3.6,6.34a4.75,4.75,0,0,0,1.87,4.06A7.44,7.44,0,0,0,275.72,29,11.3,11.3,0,0,0,282.34,26.67Zm-7.05,25.06q3.81-2.67,3.81-6.55A4.66,4.66,0,0,0,276.87,41a7.42,7.42,0,0,0-4.25-1.22A11.59,11.59,0,0,0,266.14,42q-4,2.67-4,6.34a5.15,5.15,0,0,0,2.23,4.46,7.23,7.23,0,0,0,4.32,1.3A11.37,11.37,0,0,0,275.29,51.73Z"/>
<path class="inner" d="M231.08,13.49q0,1.78-2,7.32a35,35,0,0,1-2.52,6.11,13,13,0,0,1-4.28,3.52q-2.34,1.15-4.64,2.23,5.18,3.09,5.18,8.11a15.16,15.16,0,0,1-.54,4.32l-4.2,14.27q-1.59,5.38-8.07,5.39H160.23a1.83,1.83,0,0,1-.65-1.22L174.69,9.39a2.32,2.32,0,0,1,2.52-1.72h46.95a7.89,7.89,0,0,1,4.68,1.43A5.22,5.22,0,0,1,231.08,13.49ZM208.83,26.67a7.7,7.7,0,0,0,3.82-6.55,4.67,4.67,0,0,0-2.31-4.1,7.44,7.44,0,0,0-4.17-1.23,11.59,11.59,0,0,0-6.84,2.38c-2.41,1.78-3.6,3.89-3.6,6.34a4.75,4.75,0,0,0,1.87,4.06A7.44,7.44,0,0,0,202.21,29,11.3,11.3,0,0,0,208.83,26.67Zm-7.06,25.06q3.82-2.67,3.82-6.55A4.68,4.68,0,0,0,203.36,41a7.42,7.42,0,0,0-4.25-1.22A11.59,11.59,0,0,0,192.63,42q-4,2.67-4,6.34a5.15,5.15,0,0,0,2.23,4.46,7.23,7.23,0,0,0,4.32,1.3A11.34,11.34,0,0,0,201.77,51.73Z"/>
<path class="inner" d="M157.71,8.31q-1.41,6.58-2.4,9.81-7.63,27.21-12.89,45.5a1.89,1.89,0,0,1-2.09,1.43H86.13c-1,0-1.51-.36-1.51-1.08q0-.15,7.14-25.49,7.42-26.28,7.78-27.72a7.63,7.63,0,0,1,1.08-2.6,4.85,4.85,0,0,1,3-.64H117.9c1.67,0,2.56.51,2.66,1.51l-3.17,12c.19.53.43.79.72.79h14.33q1,0,2.52-5a75.66,75.66,0,0,1,2.66-8.28c.1-.24.49-.47,1.19-.68a5.94,5.94,0,0,1,1.69-.33h14.91A3.16,3.16,0,0,1,157.71,8.31Z"/>
<path class="inner" d="M82.62,13.49q0,1.78-2,7.32a35.87,35.87,0,0,1-2.52,6.11,13,13,0,0,1-4.28,3.52q-2.34,1.15-4.65,2.23,5.19,3.09,5.19,8.11a15.16,15.16,0,0,1-.54,4.32l-4.2,14.27q-1.59,5.38-8.07,5.39H11.77a1.83,1.83,0,0,1-.65-1.22L26.22,9.39a2.33,2.33,0,0,1,2.52-1.72h47A7.89,7.89,0,0,1,80.38,9.1,5.22,5.22,0,0,1,82.62,13.49ZM60.37,26.67a7.68,7.68,0,0,0,3.81-6.55,4.68,4.68,0,0,0-2.3-4.1,7.45,7.45,0,0,0-4.18-1.23,11.64,11.64,0,0,0-6.84,2.38q-3.6,2.67-3.6,6.34a4.76,4.76,0,0,0,1.88,4.06A7.41,7.41,0,0,0,53.74,29,11.31,11.31,0,0,0,60.37,26.67ZM53.31,51.73c2.54-1.78,3.82-4,3.82-6.55A4.68,4.68,0,0,0,54.9,41a7.45,7.45,0,0,0-4.25-1.22A11.54,11.54,0,0,0,44.17,42q-4,2.67-4,6.34a5.15,5.15,0,0,0,2.23,4.46,7.23,7.23,0,0,0,4.32,1.3A11.36,11.36,0,0,0,53.31,51.73Z"/>
<path class="outer" d="M687.19,6.22A4.91,4.91,0,0,1,687,7.59l-5.76,21.64c-.58,1.39-2.21,2.55-4.9,3.46.58.72,1.18,1.41,1.8,2.08a4.14,4.14,0,0,1,.79,3.17l-8.49,27.83q-1.95,6.41-12.6,6.41H295.73L297,67.74c-1.9,3-5.79,4.44-11.7,4.44H222.22l1.24-4.41c-1.9,2.93-5.79,4.41-11.68,4.41h-138L75,67.73c-1.89,3-5.78,4.45-11.7,4.45H.25L20.41.25h63a12.69,12.69,0,0,1,6.12,1.44,5.35,5.35,0,0,1,3.11,3.83L94.14.25H231.87A12.69,12.69,0,0,1,238,1.69a5.59,5.59,0,0,1,3,3.44L242.38.25h63a12.63,12.63,0,0,1,6.12,1.44,5.43,5.43,0,0,1,3.09,3.7L316,.25h58l-9,32.18h16.46l9-32.18H677.91A12.69,12.69,0,0,1,684,1.69Q687.2,3.42,687.19,6.22Zm-12,14.59c1.3-3.69,1.94-6.13,1.94-7.32a5.21,5.21,0,0,0-2.23-4.39,7.89,7.89,0,0,0-4.68-1.43h-47a2.33,2.33,0,0,0-2.52,1.72l-15.1,54.15a1.78,1.78,0,0,0,.65,1.22H656.1q6.48,0,8.07-5.39l4.2-14.27a15.16,15.16,0,0,0,.54-4.32q0-5-5.19-8.11,2.31-1.08,4.65-2.23a13.07,13.07,0,0,0,4.28-3.52A35.87,35.87,0,0,0,675.17,20.81Zm-73.82-2.69q1-3.23,2.4-9.81a3.17,3.17,0,0,0-2.31-.79h-14.9a5.88,5.88,0,0,0-1.69.33c-.7.21-1.09.44-1.19.68A75.66,75.66,0,0,0,581,16.81q-1.51,5-2.52,5H564.15c-.29,0-.53-.26-.72-.79L566.6,9c-.1-1-1-1.51-2.67-1.51H549.68a4.83,4.83,0,0,0-3,.64,7.63,7.63,0,0,0-1.08,2.6q-.36,1.44-7.78,27.72Q530.65,63.83,530.65,64c0,.72.51,1.08,1.52,1.08h54.2a1.89,1.89,0,0,0,2.09-1.43Q593.71,45.34,601.35,18.12ZM528.94,8.31a3.68,3.68,0,0,0-1.3-.5,7.12,7.12,0,0,0-1.51-.29H474.72a7.47,7.47,0,0,0-1.9.33c-.8.21-1.24.44-1.34.68a90.5,90.5,0,0,0-2.88,9.12q-1.73,6.47-1.72,6.9a5.55,5.55,0,0,0,1,2.58,10.16,10.16,0,0,0,1.73,2l5.91,3.16q4.1,2.3,4.1,4.67a5.81,5.81,0,0,1-.72,2.73H465.44a4.94,4.94,0,0,0-2.74.65c-.67.43-1.2,1.52-1.58,3.26-.29,1.45-.6,2.92-.94,4.41-.86,3-1.73,6-2.59,9a44.33,44.33,0,0,0-1.73,7.39,2.13,2.13,0,0,0,1.37.65h54.35a1.88,1.88,0,0,0,2.09-1.42l7.22-26.58q0-2.88-4.47-5.33-2.73-1.38-5.48-2.74c-1.78-1.63-2.66-3.1-2.66-4.39a9,9,0,0,1,.64-2.81h15.34Q526.21,21.78,528.94,8.31ZM453,43.09l3.95-14h-8.05l-4.11,14Zm-1-26q1-4.47,2.09-8.86a3.33,3.33,0,0,0-1.66-.65H399a2.49,2.49,0,0,0-2.74,1.8Q381.2,62.1,381.2,63.54a2,2,0,0,0,.64,1.29H437.5c.58,0,1.34-1.52,2.31-4.55A81.26,81.26,0,0,0,442,51.16a3.33,3.33,0,0,0-1.36-.65H423.1a2.15,2.15,0,0,1-.79-1.3,18.2,18.2,0,0,1,1.22-5q1.44-4.39,3.17-4.39h8.71c1,0,1.8-.82,2.52-2.45a8.42,8.42,0,0,0,.94-3.46c0-.86-.46-1.29-1.37-1.29h-9.36a1.92,1.92,0,0,1-.79-1.3,18.37,18.37,0,0,1,1.22-5q1.44-4.45,3.17-4.46h17.07C450,21.85,451.06,20.27,452,17.1Zm-84.6,36.25q3.17-10.91,3.17-12.13c0-1-.45-1.44-1.37-1.44H354.5l8.63-30.89c-.05-.86-.6-1.3-1.65-1.3h-37a2.64,2.64,0,0,0-2.74,2.23l-15,53.86c0,.61.16,1,.5,1.15h55.67Q364,64.83,367.37,53.35ZM306.06,35.59l1.34-4.73a11.67,11.67,0,0,1-3.6,1.83c.57.72,1.17,1.41,1.8,2.08A5.64,5.64,0,0,1,306.06,35.59Zm-3.41-14.78q1.93-5.53,1.94-7.32a5.23,5.23,0,0,0-2.23-4.39,7.93,7.93,0,0,0-4.68-1.43h-47a2.32,2.32,0,0,0-2.52,1.72L233.09,63.54a1.83,1.83,0,0,0,.65,1.22h49.84q6.48,0,8.06-5.39l4.2-14.27a15.16,15.16,0,0,0,.54-4.32q0-5-5.18-8.11,2.3-1.08,4.64-2.23a13.1,13.1,0,0,0,4.29-3.52A35.87,35.87,0,0,0,302.65,20.81ZM232.5,35.5l1.28-4.56a11.91,11.91,0,0,1-3.49,1.75c.57.72,1.17,1.41,1.8,2.08A5.37,5.37,0,0,1,232.5,35.5Zm-3.37-14.69q2-5.53,2-7.32a5.22,5.22,0,0,0-2.24-4.39,7.89,7.89,0,0,0-4.68-1.43H177.21a2.32,2.32,0,0,0-2.52,1.72L159.58,63.54a1.83,1.83,0,0,0,.65,1.22h49.83q6.48,0,8.07-5.39l4.2-14.27a15.16,15.16,0,0,0,.54-4.32q0-5-5.18-8.11,2.3-1.08,4.64-2.23a13,13,0,0,0,4.28-3.52A35,35,0,0,0,229.13,20.81Zm-73.82-2.69q1-3.23,2.4-9.81a3.16,3.16,0,0,0-2.3-.79H140.5a5.94,5.94,0,0,0-1.69.33c-.7.21-1.09.44-1.19.68A75.66,75.66,0,0,0,135,16.81q-1.51,5-2.52,5H118.11c-.29,0-.53-.26-.72-.79l3.17-12c-.1-1-1-1.51-2.66-1.51H103.64a4.85,4.85,0,0,0-3,.64,7.63,7.63,0,0,0-1.08,2.6q-.36,1.44-7.78,27.72Q84.62,63.83,84.62,64c0,.72.5,1.08,1.51,1.08h54.2a1.89,1.89,0,0,0,2.09-1.43Q147.69,45.34,155.31,18.12ZM84.11,35.65l1.37-4.84a11.5,11.5,0,0,1-3.66,1.88c.58.72,1.18,1.41,1.8,2.08A5.54,5.54,0,0,1,84.11,35.65ZM80.67,20.81q1.95-5.53,2-7.32A5.22,5.22,0,0,0,80.38,9.1,7.89,7.89,0,0,0,75.7,7.67h-47a2.33,2.33,0,0,0-2.52,1.72L11.12,63.54a1.83,1.83,0,0,0,.65,1.22H61.6q6.48,0,8.07-5.39l4.2-14.27a15.16,15.16,0,0,0,.54-4.32q0-5-5.19-8.11,2.31-1.08,4.65-2.23a13,13,0,0,0,4.28-3.52A35.87,35.87,0,0,0,80.67,20.81Z"/>
<path class="outer" d="M658.68,20.12a7.68,7.68,0,0,1-3.81,6.55A11.31,11.31,0,0,1,648.24,29a7.46,7.46,0,0,1-4.61-1.41,4.78,4.78,0,0,1-1.87-4.06q0-3.68,3.6-6.34a11.64,11.64,0,0,1,6.84-2.38A7.45,7.45,0,0,1,656.38,16,4.68,4.68,0,0,1,658.68,20.12Z"/>
<path class="outer" d="M651.63,45.18c0,2.59-1.28,4.77-3.82,6.55a11.36,11.36,0,0,1-6.62,2.38,7.18,7.18,0,0,1-4.32-1.3,5.16,5.16,0,0,1-2.24-4.46q0-3.68,4-6.34a11.54,11.54,0,0,1,6.48-2.23A7.39,7.39,0,0,1,649.39,41,4.67,4.67,0,0,1,651.63,45.18Z"/>
<path class="outer" d="M286.16,20.12a7.67,7.67,0,0,1-3.82,6.55A11.3,11.3,0,0,1,275.72,29a7.44,7.44,0,0,1-4.61-1.41,4.75,4.75,0,0,1-1.87-4.06q0-3.68,3.6-6.34a11.59,11.59,0,0,1,6.84-2.38A7.44,7.44,0,0,1,283.85,16,4.67,4.67,0,0,1,286.16,20.12Z"/>
<path class="outer" d="M279.1,45.18q0,3.89-3.81,6.55a11.37,11.37,0,0,1-6.63,2.38,7.23,7.23,0,0,1-4.32-1.3,5.15,5.15,0,0,1-2.23-4.46q0-3.68,4-6.34a11.59,11.59,0,0,1,6.48-2.23A7.42,7.42,0,0,1,276.87,41,4.66,4.66,0,0,1,279.1,45.18Z"/>
<path class="outer" d="M212.65,20.12a7.7,7.7,0,0,1-3.82,6.55A11.3,11.3,0,0,1,202.21,29a7.44,7.44,0,0,1-4.61-1.41,4.75,4.75,0,0,1-1.87-4.06c0-2.45,1.19-4.56,3.6-6.34a11.59,11.59,0,0,1,6.84-2.38A7.44,7.44,0,0,1,210.34,16,4.67,4.67,0,0,1,212.65,20.12Z"/>
<path class="outer" d="M205.59,45.18q0,3.89-3.82,6.55a11.34,11.34,0,0,1-6.62,2.38,7.23,7.23,0,0,1-4.32-1.3,5.15,5.15,0,0,1-2.23-4.46q0-3.68,4-6.34a11.59,11.59,0,0,1,6.48-2.23A7.42,7.42,0,0,1,203.36,41,4.68,4.68,0,0,1,205.59,45.18Z"/>
<path class="outer" d="M64.18,20.12a7.68,7.68,0,0,1-3.81,6.55A11.31,11.31,0,0,1,53.74,29a7.41,7.41,0,0,1-4.6-1.41,4.76,4.76,0,0,1-1.88-4.06q0-3.68,3.6-6.34a11.64,11.64,0,0,1,6.84-2.38A7.45,7.45,0,0,1,61.88,16,4.68,4.68,0,0,1,64.18,20.12Z"/>
<path class="outer" d="M57.13,45.18c0,2.59-1.28,4.77-3.82,6.55a11.36,11.36,0,0,1-6.62,2.38,7.23,7.23,0,0,1-4.32-1.3,5.15,5.15,0,0,1-2.23-4.46q0-3.68,4-6.34a11.54,11.54,0,0,1,6.48-2.23A7.45,7.45,0,0,1,54.9,41,4.68,4.68,0,0,1,57.13,45.18Z"/>
</svg>
